<?xml version="1.0" encoding="utf-8"?>
<!-- Generator: Adobe Illustrator 24.3.0, SVG Export Plug-In . SVG Version: 6.00 Build 0)  -->
<svg version="1.1" xmlns="http://www.w3.org/2000/svg" xmlns:xlink="http://www.w3.org/1999/xlink" x="0px" y="0px"
	 viewBox="0 0 595.3 841.9" style="enable-background:new 0 0 595.3 841.9;" xml:space="preserve">
<style type="text/css">
	.st0{display:none;}
	.st1{display:inline;fill:url(#SVGID_1_);}
	.st2{fill:#FFFFFF;}
</style>
<g id="Слой_2" class="st0">
	
		<radialGradient id="SVGID_1_" cx="304.0241" cy="407.9621" r="352.6265" fx="133.4324" fy="99.3459" gradientUnits="userSpaceOnUse">
		<stop  offset="1.016607e-07" style="stop-color:#D5E900"/>
		<stop  offset="2.961083e-02" style="stop-color:#FFCA2A"/>
		<stop  offset="1" style="stop-color:#FFCC00"/>
	</radialGradient>
	<circle class="st1" cx="304" cy="408" r="352.6"/>
</g>
<g id="Слой_1">
	
		<image style="display:none;overflow:visible;enable-background:new    ;" width="1336" height="1166" xlink:href="50D60632.png"  transform="matrix(1 0 0 1 -370 -162.1102)">
	</image>
	<path class="st2" d="M99.9,192.1c0,0-40.5,21.5-27.8,154.2c0.5,5.1,3,47.6,9.6,62.8c0,0-34.5,23.8-16.2,82.6
		c0.5,2.5,13.9,30.6,17.9,35c0.3-1,1.9-54.7,1.9-54.7s3.9,0.2,3.7,4.1c1.9,3.2,11,11.5,18.9,13.9c-1.5,1.4-7.4,1.9-20.4-10.5
		c0.7,5.6,1.2,54,1.2,54s-0.2,10.5-8.3,0.2c0,0-15.7-25.3-21.6-43.4c-0.7-0.8-13.7-37.5-0.2-66.4c1.4-2.2,11.8-17.2,11.8-17.2
		s-8.6-71.8-6.1-105.9c2.5-34.1,2.9-56.9,17.2-89C83.7,207.5,92.2,192.4,99.9,192.1z"/>
	<path class="st2" d="M101.8,306.6c0,0-18.8,0.1-21.5,20c-0.5,3.8,0.3,7.7,2.5,11c3.5,5.3,10.3,12.3,20.7,9.1c0,0,0.5-1.7-3.5-2.7
		c-1.3,0-6.4-1.4-10.6-9.9c-1.8-3.7-2.1-8-0.7-11.8c1.1-3.2,2.9-7,5.5-9.2c0.2-0.2,0.5-0.4,0.7-0.5
		C97.1,311.2,101,308.5,101.8,306.6z"/>
	<path class="st2" d="M210.9,388.7v7.3l-43.6-0.3c0,0-25.2,4.4-26.7,30.9c0.2,0.7-1.4,24.5,24.8,31.8c2,0.5,44.9,0.5,44.9,0.5v6.8
		l-43.6-0.2c0,0-24-3.7-30.6-25.5c0,0-7.4-18.9,5.1-35.1c0,0,8.8-14,28.4-15.5C189.6,389.2,210.9,388.7,210.9,388.7z"/>
	<path class="st2" d="M262.9,389.4v6.4c0,0-19.4-0.8-24.5,8.4c0,0-8.6,6.8-10.5,19.1c-0.2,12.2,0,42.2,0,42.2h-6.4v-43.9
		C221.6,421.6,226,388.5,262.9,389.4z"/>
	<path class="st2" d="M336.8,388.9l-0.2,6.8l-40.9,0.2c0,0-25.2,3.5-26.7,30.6c0,2.7-1.2,25.7,25.5,32.4c15.7-0.3,41.7,0,41.7,0v6.6
		h-41.7c0,0-21.8-2.9-29.7-24.7c-0.7-1.9-8.4-25.5,11.5-43.6c0.8-0.5,9.6-8.6,28-8.1C317,389,336.8,388.9,336.8,388.9z"/>
	<rect x="296.6" y="424" class="st2" width="40.2" height="6.9"/>
	<path class="st2" d="M423.6,418.4v2.1c-0.1-0.7-0.3-1.4-0.5-2.1H423.6z"/>
	<polygon class="st2" points="423.6,434.9 423.6,465.7 417.2,465.5 417.2,450 	"/>
	<path class="st2" d="M423.1,418.4h-6v8.9c0-17.5-14.2-31.7-31.7-31.7c-17.5,0-31.7,14.2-31.7,31.7c0,17.5,14.2,31.7,31.7,31.7
		c17.5,0,31.7-14.2,31.7-31.7V450c-7,9.8-18.4,16.2-31.4,16.2c-21.3,0-38.5-17.2-38.5-38.5c0-21.3,17.2-38.5,38.5-38.5
		C403.8,389.2,419,401.6,423.1,418.4z"/>
	<path class="st2" d="M423.6,420.5v14.4l-6.4,15.1v-31.6h6C423.3,419.1,423.4,419.8,423.6,420.5z"/>
	<path class="st2" d="M424.2,427.7c0,2.5-0.2,4.9-0.7,7.2v-14.4C424,422.8,424.2,425.2,424.2,427.7z"/>
	<path class="st2" d="M441.3,388.8v41.4c0,0,1.8,24.3,28.7,28.7c6.2,0,6.2,0,6.2,0v6.5h-8.1c0,0-33.1-3.1-33.2-33.7
		c-0.1-30.1,0-42.9,0-42.9L441.3,388.8z"/>
	<rect x="455.8" y="423.9" class="st2" width="20.6" height="6.8"/>
	<path class="st2" d="M561.1,395.2h-39.2c0,0-28.3,3.3-28.3,33.1c0.1,0.7-0.2,23.8,26.2,30.5c21.3,0,41.3,0,41.3,0v6.9h-41.4
		c0,0-27.6-5-32.1-31.6c0.1-0.6-6.2-39.9,35.1-44.8c4.3,0,38.4,0,38.4,0L561.1,395.2z"/>
	<polygon class="st2" points="561.2,424.2 520.9,424.2 520.9,431.1 	"/>
</g>
</svg>
